<svg width="46" height="22" viewBox="0 0 46 22" fill="none" xmlns="http://www.w3.org/2000/svg">
<path d="M25.4526 13.4716H24.6626L24.3826 13.2016C25.5826 11.8016 26.2026 9.89156 25.8626 7.86156C25.3926 5.08156 23.0726 2.86156 20.2726 2.52156C16.0426 2.00156 12.4826 5.56156 13.0026 9.79156C13.3426 12.5916 15.5626 14.9116 18.3426 15.3816C20.3726 15.7216 22.2826 15.1016 23.6826 13.9016L23.9526 14.1816V14.9716L28.2026 19.2216C28.6126 19.6316 29.2826 19.6316 29.6926 19.2216C30.1026 18.8116 30.1026 18.1416 29.6926 17.7316L25.4526 13.4716ZM19.4526 13.4716C16.9626 13.4716 14.9526 11.4616 14.9526 8.97156C14.9526 6.48156 16.9626 4.47156 19.4526 4.47156C21.9426 4.47156 23.9526 6.48156 23.9526 8.97156C23.9526 11.4616 21.9426 13.4716 19.4526 13.4716Z" fill="black" fill-opacity="0.54"/>
</svg>
